<svg width="78" height="30" viewBox="0 0 78 30" fill="none" xmlns="http://www.w3.org/2000/svg">
<path d="M36.94 14.86C37.6867 14.9933 38.32 15.3867 38.84 16.04C39.36 16.6933 39.62 17.4333 39.62 18.26C39.62 18.9667 39.4333 19.6067 39.06 20.18C38.7 20.74 38.1733 21.1867 37.48 21.52C36.7867 21.84 35.98 22 35.06 22H29.5V8.10001H34.8C35.7467 8.10001 36.56 8.26001 37.24 8.58001C37.92 8.90001 38.4333 9.33335 38.78 9.88001C39.1267 10.4133 39.3 11.0133 39.3 11.68C39.3 12.48 39.0867 13.1467 38.66 13.68C38.2333 14.2133 37.66 14.6067 36.94 14.86ZM31.78 13.94H34.6C35.3467 13.94 35.9267 13.7733 36.34 13.44C36.7667 13.0933 36.98 12.6 36.98 11.96C36.98 11.3333 36.7667 10.8467 36.34 10.5C35.9267 10.14 35.3467 9.96001 34.6 9.96001H31.78V13.94ZM34.86 20.14C35.6333 20.14 36.24 19.9533 36.68 19.58C37.12 19.2067 37.34 18.6867 37.34 18.02C37.34 17.34 37.1067 16.8 36.64 16.4C36.1733 16 35.5533 15.8 34.78 15.8H31.78V20.14H34.86Z" fill="#2F59F5"/>
<path d="M41.3377 16.44C41.3377 15.3333 41.5643 14.3533 42.0177 13.5C42.4843 12.6467 43.111 11.9867 43.8977 11.52C44.6977 11.04 45.5777 10.8 46.5377 10.8C47.4043 10.8 48.1577 10.9733 48.7977 11.32C49.451 11.6533 49.971 12.0733 50.3577 12.58V10.98H52.6577V22H50.3577V20.36C49.971 20.88 49.4443 21.3133 48.7777 21.66C48.111 22.0067 47.351 22.18 46.4977 22.18C45.551 22.18 44.6843 21.94 43.8977 21.46C43.111 20.9667 42.4843 20.2867 42.0177 19.42C41.5643 18.54 41.3377 17.5467 41.3377 16.44ZM50.3577 16.48C50.3577 15.72 50.1977 15.06 49.8777 14.5C49.571 13.94 49.1643 13.5133 48.6577 13.22C48.151 12.9267 47.6043 12.78 47.0177 12.78C46.431 12.78 45.8843 12.9267 45.3777 13.22C44.871 13.5 44.4577 13.92 44.1377 14.48C43.831 15.0267 43.6777 15.68 43.6777 16.44C43.6777 17.2 43.831 17.8667 44.1377 18.44C44.4577 19.0133 44.871 19.4533 45.3777 19.76C45.8977 20.0533 46.4443 20.2 47.0177 20.2C47.6043 20.2 48.151 20.0533 48.6577 19.76C49.1643 19.4667 49.571 19.04 49.8777 18.48C50.1977 17.9067 50.3577 17.24 50.3577 16.48Z" fill="#2F59F5"/>
<path d="M54.8923 16.48C54.8923 15.3467 55.119 14.3533 55.5723 13.5C56.039 12.6333 56.679 11.9667 57.4923 11.5C58.3057 11.0333 59.239 10.8 60.2923 10.8C61.6257 10.8 62.7257 11.12 63.5923 11.76C64.4723 12.3867 65.0657 13.2867 65.3723 14.46H62.9123C62.7123 13.9133 62.3923 13.4867 61.9523 13.18C61.5123 12.8733 60.959 12.72 60.2923 12.72C59.359 12.72 58.6123 13.0533 58.0523 13.72C57.5057 14.3733 57.2323 15.2933 57.2323 16.48C57.2323 17.6667 57.5057 18.5933 58.0523 19.26C58.6123 19.9267 59.359 20.26 60.2923 20.26C61.6123 20.26 62.4857 19.68 62.9123 18.52H65.3723C65.0523 19.64 64.4523 20.5333 63.5723 21.2C62.6923 21.8533 61.599 22.18 60.2923 22.18C59.239 22.18 58.3057 21.9467 57.4923 21.48C56.679 21 56.039 20.3333 55.5723 19.48C55.119 18.6133 54.8923 17.6133 54.8923 16.48Z" fill="#2F59F5"/>
<path d="M72.0045 16.5L77.0845 22H74.0045L69.9245 17.26V22H67.6445V7.20001H69.9245V15.8L73.9245 10.98H77.0845L72.0045 16.5Z" fill="#2F59F5"/>
<path fill-rule="evenodd" clip-rule="evenodd" d="M6.41436 16.3333L10.0406 19.9596L8.62638 21.3738L2.58594 15.3333L8.62638 9.29291L10.0406 10.7071L6.41436 14.3333L22.0002 14.3333V16.3333L6.41436 16.3333Z" fill="#2F59F5"/>
</svg>
