<svg id="Layer_1" data-name="Layer 1" xmlns="http://www.w3.org/2000/svg" xmlns:xlink="http://www.w3.org/1999/xlink" viewBox="0 0 681.89 324.83"><defs><style>.cls-1{fill:#d2c1d3;}.cls-2{fill:#686768;}.cls-3{fill:#231f20;}.cls-4{fill:#83827f;}.cls-5{fill:#c9b4c9;}.cls-6{fill:#a89caa;}.cls-7{fill:#847e87;}.cls-8{fill:#767576;}.cls-9{fill:none;stroke:#231f20;stroke-miterlimit:10;stroke-width:0.25px;}</style></defs><title>Heart</title><polygon class="cls-1" points="681.83 274 681.83 290.95 681.82 290.95 667.15 282.47 681.83 274"/><polygon class="cls-1" points="681.83 257.06 681.83 274 667.16 265.53 681.83 257.06"/><polygon class="cls-2" points="681.83 257.06 667.16 265.53 667.15 265.53 667.15 248.58 681.83 257.06"/><polygon class="cls-1" points="681.82 274 667.14 282.47 667.14 265.53 667.15 265.53 681.82 274"/><polygon class="cls-1" points="681.82 290.95 667.15 299.42 667.15 282.47 681.82 290.95"/><polygon class="cls-3" points="667.14 282.47 667.14 299.42 652.47 290.95 652.47 290.94 667.14 282.47"/><polygon class="cls-3" points="667.14 265.53 667.14 282.47 652.47 274 667.14 265.53"/><polygon class="cls-2" points="667.15 248.58 667.15 265.53 652.48 257.06 652.48 257.05 667.15 248.58"/><polygon class="cls-1" points="667.15 231.64 667.15 248.58 652.48 240.11 667.15 231.64"/><polygon class="cls-4" points="667.15 231.64 652.48 240.11 652.48 223.17 667.15 231.64"/><polygon class="cls-1" points="667.14 248.58 652.47 257.05 652.47 240.11 667.14 248.58"/><polygon class="cls-3" points="667.15 265.53 652.48 274 652.48 257.06 667.15 265.53"/><polygon class="cls-3" points="667.14 282.47 652.47 290.94 652.47 274 667.14 282.47"/><polygon class="cls-1" points="667.15 299.42 652.48 307.89 652.48 290.95 667.15 299.42"/><polygon class="cls-3" points="652.47 290.95 652.47 307.89 637.8 299.42 637.8 299.41 652.47 290.95"/><polygon class="cls-2" points="652.48 274 652.48 290.95 637.81 282.48 637.81 282.47 652.48 274"/><polygon class="cls-3" points="652.48 240.11 652.48 257.05 637.81 248.59 637.81 248.58 652.48 240.11"/><polygon class="cls-4" points="652.47 223.17 652.47 240.11 637.8 231.64 652.47 223.17"/><polygon class="cls-3" points="652.47 240.11 637.8 248.58 637.8 231.64 652.47 240.11"/><polygon class="cls-1" points="652.48 307.89 637.81 316.36 637.81 299.42 652.48 307.89"/><polygon class="cls-4" points="652.48 223.17 637.81 231.64 637.81 214.7 652.48 223.17"/><polygon class="cls-3" points="652.47 290.95 637.8 299.41 637.8 282.48 652.47 290.95"/><polygon class="cls-3" points="637.8 299.42 637.8 316.36 623.12 307.89 637.8 299.42"/><polygon class="cls-2" points="637.81 282.48 637.81 299.42 623.13 290.95 623.13 290.94 637.8 282.48 637.81 282.48"/><polygon class="cls-3" points="637.8 231.64 637.8 248.58 623.12 240.11 637.8 231.64"/><polygon class="cls-4" points="637.81 214.7 637.81 231.64 623.13 223.17 637.8 214.7 637.81 214.7"/><polygon class="cls-3" points="637.8 231.64 623.12 240.11 623.12 223.17 637.8 231.64"/><polygon class="cls-1" points="637.81 248.58 623.13 257.06 623.13 240.11 637.81 248.58"/><polygon class="cls-3" points="637.8 299.42 623.12 307.89 623.12 290.95 637.8 299.42"/><polygon class="cls-1" points="637.81 316.36 623.13 324.83 623.13 307.89 637.81 316.36"/><polygon class="cls-3" points="623.13 307.89 623.13 324.83 608.46 316.36 623.13 307.89"/><polygon class="cls-2" points="623.12 290.95 623.12 307.89 608.45 299.42 623.12 290.95"/><polygon class="cls-5" points="623.12 290.94 623.12 290.95 608.45 299.42 608.45 282.47 623.12 290.94"/><polygon class="cls-5" points="623.13 274 623.13 290.94 608.46 282.47 623.13 274"/><polygon class="cls-3" points="623.13 240.11 623.13 257.06 608.46 248.59 608.46 248.58 623.13 240.11"/><polygon class="cls-6" points="623.12 223.17 623.12 240.11 608.45 231.64 623.12 223.17"/><polygon class="cls-1" points="623.13 206.23 623.13 223.17 608.46 214.7 608.46 214.69 623.13 206.23"/><polygon class="cls-7" points="623.13 206.22 623.13 206.23 608.46 214.69 608.46 197.76 623.13 206.22"/><polygon class="cls-1" points="608.45 214.7 623.12 223.17 608.45 231.64 608.45 214.7"/><polygon class="cls-3" points="623.13 240.11 608.46 248.58 608.46 231.64 623.13 240.11"/><polygon class="cls-3" points="623.13 307.89 608.46 316.36 608.46 299.42 623.13 307.89"/><polygon class="cls-2" points="623.13 274 608.46 282.47 608.46 265.53 623.13 274"/><polygon class="cls-3" points="608.46 282.47 608.46 299.42 593.78 290.94 608.46 282.47"/><polygon class="cls-2" points="608.45 265.53 608.45 282.47 593.77 274 608.44 265.53 608.45 265.53"/><polygon class="cls-5" points="608.46 248.59 608.46 265.53 608.45 265.53 593.78 257.06 608.45 248.59 608.46 248.59"/><polygon class="cls-3" points="608.46 214.7 608.46 231.64 593.78 223.17 608.46 214.7"/><polygon class="cls-3" points="608.45 214.69 608.45 214.7 593.77 223.17 593.77 206.22 608.45 214.69"/><polygon class="cls-7" points="608.46 197.75 608.46 214.69 593.78 206.22 608.45 197.75 608.46 197.75"/><polygon class="cls-3" points="608.46 282.47 593.78 290.94 593.78 274 608.46 282.47"/><polygon class="cls-8" points="608.45 248.59 593.78 257.06 593.78 240.11 608.45 248.59"/><polygon class="cls-7" points="608.45 197.75 593.78 206.22 593.78 189.28 608.45 197.75"/><polygon class="cls-5" points="593.77 257.06 608.44 265.53 593.77 274 593.77 257.06"/><polygon class="cls-3" points="593.78 257.06 593.78 274 579.11 265.53 593.78 257.06"/><polygon class="cls-8" points="593.78 240.11 593.78 257.06 579.11 248.59 579.11 248.58 593.78 240.11"/><polygon class="cls-5" points="593.78 223.17 593.78 240.11 579.11 231.64 593.78 223.17"/><polygon class="cls-3" points="593.77 206.22 593.77 223.17 579.1 214.7 579.1 214.69 593.77 206.22"/><polygon class="cls-7" points="593.78 189.29 593.78 206.22 579.11 197.75 593.78 189.29"/><polygon class="cls-5" points="579.1 214.7 593.77 223.17 579.1 231.64 579.1 214.7"/><polygon class="cls-3" points="593.78 257.06 579.11 265.53 579.11 248.59 593.78 257.06"/><polygon class="cls-5" points="593.77 240.11 579.1 248.58 579.1 231.64 593.77 240.11"/><polygon class="cls-3" points="593.78 206.22 579.11 214.69 579.11 197.75 593.78 206.22"/><polygon class="cls-3" points="579.11 231.64 579.11 248.58 564.44 240.12 564.44 240.11 579.11 231.64"/><polygon class="cls-3" points="579.11 214.69 579.11 231.64 564.44 223.17 564.44 223.16 579.11 214.69"/><polygon class="cls-2" points="579.11 197.76 579.11 214.69 564.44 206.23 564.44 206.22 579.11 197.76"/><polygon class="cls-3" points="579.11 214.69 564.44 223.16 564.44 206.23 579.11 214.69"/><polygon class="cls-3" points="579.11 231.64 564.44 240.11 564.44 223.17 579.11 231.64"/><polyline class="cls-9" points="579.1 214.7 579.1 231.64 579.1 248.58"/><line class="cls-9" x1="579.1" y1="197.76" x2="579.1" y2="214.69"/><polyline class="cls-9" points="593.78 274 593.78 257.06 593.78 240.11"/><polyline class="cls-9" points="593.78 223.17 593.78 206.22 593.78 189.29"/><polyline class="cls-9" points="608.46 265.53 608.46 282.47 608.46 299.42"/><line class="cls-9" x1="608.46" y1="231.64" x2="608.46" y2="214.7"/><line class="cls-9" x1="608.45" y1="197.76" x2="608.45" y2="214.69"/><polyline class="cls-9" points="623.13 324.83 623.13 307.89 623.13 290.95"/><polyline class="cls-9" points="623.13 223.17 623.13 240.11 623.13 257.06"/><line class="cls-9" x1="637.81" y1="316.36" x2="637.81" y2="299.42"/><line class="cls-9" x1="637.81" y1="299.41" x2="637.81" y2="282.48"/><polyline class="cls-9" points="637.8 214.7 637.8 231.64 637.8 248.58"/><line class="cls-9" x1="652.48" y1="307.89" x2="652.48" y2="290.95"/><line class="cls-9" x1="652.48" y1="290.94" x2="652.48" y2="274"/><polyline class="cls-9" points="652.48 257.05 652.48 240.11 652.48 223.17"/><polyline class="cls-9" points="667.15 299.42 667.15 282.47 667.15 265.53 667.15 248.58"/><polyline class="cls-9" points="608.46 299.42 623.13 307.89 637.81 316.36"/><polyline class="cls-9" points="652.48 307.89 637.81 299.42 623.13 290.95"/><polyline class="cls-9" points="623.13 290.94 608.46 282.47 593.78 274"/><polyline class="cls-9" points="667.15 299.42 652.48 290.95 637.81 282.48"/><polyline class="cls-9" points="579.1 248.59 593.77 257.06 608.44 265.53"/><polyline class="cls-9" points="681.82 290.95 667.15 282.47 652.48 274"/><polyline class="cls-9" points="564.44 223.17 579.11 231.64 593.78 240.11"/><line class="cls-9" x1="681.83" y1="274" x2="667.16" y2="265.53"/><line class="cls-9" x1="652.47" y1="257.06" x2="667.14" y2="265.53"/><polyline class="cls-9" points="564.44 206.23 579.11 214.69 579.11 214.7 593.78 223.17"/><polyline class="cls-9" points="608.46 231.64 623.13 240.11 637.81 248.58"/><polyline class="cls-9" points="667.15 248.58 652.48 240.11 637.81 231.64 623.13 223.17 608.46 214.7"/><polyline class="cls-9" points="608.46 214.69 593.78 206.22 579.11 197.75"/><polyline class="cls-9" points="608.46 316.36 623.13 307.89 637.81 299.42 637.81 299.41 652.48 290.95 652.48 290.94 667.15 282.47 681.83 274"/><polyline class="cls-9" points="681.83 257.06 667.16 265.53 667.15 265.53 652.48 274"/><polyline class="cls-9" points="623.13 290.94 623.13 290.95 608.46 299.42"/><line class="cls-9" x1="667.15" y1="248.58" x2="652.48" y2="257.05"/><polyline class="cls-9" points="623.13 274 608.46 282.47 593.78 290.94"/><polyline class="cls-9" points="593.78 274 608.45 265.53 608.46 265.53"/><polyline class="cls-9" points="637.81 248.58 652.48 240.11 667.15 231.64"/><polyline class="cls-9" points="652.48 223.17 637.81 231.64 623.13 240.11 608.46 248.58"/><polyline class="cls-9" points="608.45 248.59 593.78 257.06 579.11 265.53"/><line class="cls-9" x1="593.78" y1="240.11" x2="579.11" y2="248.58"/><line class="cls-9" x1="623.13" y1="223.17" x2="608.46" y2="231.64"/><polyline class="cls-9" points="623.13 206.23 608.46 214.69 608.46 214.7 593.78 223.17 579.11 231.64 564.44 240.11"/><polyline class="cls-9" points="564.44 223.16 579.11 214.69 593.78 206.22 608.45 197.75"/><line class="cls-9" x1="579.11" y1="163.86" x2="579.1" y2="163.86"/><polygon class="cls-9" points="652.48 257.05 652.48 274 637.81 282.47 637.81 282.48 637.8 282.48 623.13 290.94 623.13 274 608.46 265.53 608.46 248.59 623.13 257.06 637.81 248.58 637.81 248.59 652.48 257.05"/><polygon class="cls-9" points="608.46 231.64 608.46 248.59 608.45 248.59 593.78 240.11 593.78 223.17 608.46 231.64"/><image width="808" height="792" transform="scale(0.18)" xlink:href="../Desktop/Screenshot 2020-04-17 at 17.48.13.png"/></svg>