<svg width="226" height="95" viewBox="0 0 226 95" fill="none" xmlns="http://www.w3.org/2000/svg">
<path d="M0.16 31L0.56 29.2H1.08C1.93333 29.2 2.70667 29.04 3.4 28.72C4.12 28.4 4.61333 27.64 4.88 26.44L9 6.96C9.13333 6.45333 9.2 6.05333 9.2 5.76C9.2 5.12 8.92 4.70667 8.36 4.52C7.82667 4.33333 7.14667 4.24 6.32 4.24H5.8L6.16 2.44H18.4L18.04 4.24H17.52C16.64 4.24 15.84 4.4 15.12 4.72C14.4 5.01333 13.92 5.73333 13.68 6.88L9 28.88H16.56C17.84 28.88 18.8267 28.5067 19.52 27.76C20.2133 26.9867 20.7333 26.0933 21.08 25.08L22.04 22.32H24.24L22.12 31H0.16ZM36.0734 31.4C34.5801 31.4 33.2201 31.1067 31.9934 30.52C30.7668 29.9067 29.7801 28.9867 29.0334 27.76C28.3134 26.5333 27.9534 24.9867 27.9534 23.12C27.9534 21.6267 28.2201 20.08 28.7534 18.48C29.2868 16.8533 30.0734 15.3333 31.1134 13.92C32.1534 12.5067 33.4468 11.36 34.9934 10.48C36.5401 9.6 38.3134 9.16 40.3134 9.16C42.0734 9.16 43.4334 9.57333 44.3934 10.4C45.3534 11.2 45.8334 12.3333 45.8334 13.8C45.8334 15.2133 45.3268 16.5333 44.3134 17.76C43.3268 18.96 41.9401 19.9467 40.1534 20.72C38.3934 21.4667 36.3934 21.84 34.1534 21.84H32.7534C32.7001 22.1067 32.6734 22.3867 32.6734 22.68C32.6734 22.9467 32.6734 23.2133 32.6734 23.48C32.6734 25.1333 33.0334 26.4267 33.7534 27.36C34.5001 28.2667 35.5934 28.72 37.0334 28.72C38.3401 28.72 39.4868 28.4133 40.4734 27.8C41.4868 27.16 42.2734 26.48 42.8334 25.76C43.1268 26 43.2734 26.4 43.2734 26.96C43.2734 27.5467 43.0201 28.1867 42.5134 28.88C42.0068 29.5733 41.2201 30.1733 40.1534 30.68C39.0868 31.16 37.7268 31.4 36.0734 31.4ZM33.0734 19.88H33.4734C34.9668 19.88 36.3001 19.6267 37.4734 19.12C38.6468 18.6133 39.5668 17.92 40.2334 17.04C40.9268 16.1333 41.2734 15.08 41.2734 13.88C41.2734 12.0933 40.5401 11.2 39.0734 11.2C38.3268 11.2 37.6334 11.4667 36.9934 12C36.3801 12.5067 35.8068 13.1867 35.2734 14.04C34.7668 14.8667 34.3268 15.8 33.9534 16.84C33.5801 17.8533 33.2868 18.8667 33.0734 19.88ZM65.3488 31.4C64.0688 31.4 63.0821 31.0267 62.3888 30.28C61.7221 29.5333 61.3888 28.56 61.3888 27.36C61.3888 26.16 61.6288 24.4267 62.1088 22.16L62.7888 19C62.8688 18.6533 62.9754 18.2 63.1088 17.64C63.2421 17.08 63.3488 16.5067 63.4288 15.92C63.5354 15.3067 63.5888 14.7733 63.5888 14.32C63.5888 13.8133 63.4821 13.3067 63.2688 12.8C63.0554 12.2667 62.5621 12 61.7888 12C60.9888 12 60.2021 12.32 59.4288 12.96C58.6554 13.5733 57.9354 14.36 57.2688 15.32C56.6021 16.28 56.0288 17.28 55.5488 18.32C55.0954 19.3333 54.7888 20.24 54.6288 21.04L52.5088 31H48.1488L51.5088 14.96C51.5888 14.5867 51.6421 14.2267 51.6688 13.88C51.7221 13.5333 51.7487 13.3067 51.7487 13.2C51.7487 12.4 51.5088 11.8933 51.0288 11.68C50.5488 11.4667 49.9221 11.36 49.1488 11.36H48.7088L49.0688 9.56H56.8688L55.9888 14.4H56.3488C57.4154 12.6667 58.5221 11.3733 59.6688 10.52C60.8154 9.64 62.1754 9.2 63.7488 9.2C65.3754 9.2 66.5088 9.65333 67.1488 10.56C67.7888 11.44 68.1088 12.48 68.1088 13.68C68.1088 14.3467 68.0288 15.08 67.8688 15.88C67.7088 16.68 67.5488 17.4267 67.3888 18.12L66.3888 22.72C66.2288 23.44 66.0954 24.16 65.9888 24.88C65.9088 25.5733 65.8688 26.2133 65.8688 26.8C65.8688 28.0533 66.3354 28.68 67.2688 28.68C67.6954 28.68 68.1088 28.6133 68.5087 28.48C68.9088 28.32 69.3354 28.08 69.7888 27.76L70.5488 29C69.9088 29.56 69.1621 30.1067 68.3088 30.64C67.4821 31.1467 66.4954 31.4 65.3488 31.4ZM80.3144 5.68C79.5944 5.68 78.9944 5.49333 78.5144 5.12C78.061 4.74667 77.8344 4.17333 77.8344 3.4C77.8344 2.46667 78.0877 1.74667 78.5944 1.24C79.1277 0.733333 79.7944 0.48 80.5944 0.48C81.2877 0.48 81.8744 0.666666 82.3544 1.04C82.8344 1.38666 83.0744 1.96 83.0744 2.76C83.0744 3.8 82.781 4.54666 82.1944 5C81.6077 5.45333 80.981 5.68 80.3144 5.68ZM77.7544 31.4C76.581 31.4 75.661 31.0267 74.9944 30.28C74.3544 29.5333 74.0344 28.6133 74.0344 27.52C74.0344 27.0133 74.0744 26.4133 74.1544 25.72C74.261 25.0267 74.3677 24.32 74.4744 23.6C74.6077 22.8533 74.741 22.2 74.8744 21.64L76.4344 14.28C76.541 13.7733 76.5944 13.36 76.5944 13.04C76.5944 12.32 76.381 11.8667 75.9544 11.68C75.5544 11.4667 74.981 11.36 74.2344 11.36H73.6744L74.0344 9.56H81.8344L79.0744 22.44C78.9944 22.7867 78.9144 23.2267 78.8344 23.76C78.7544 24.2933 78.6744 24.8267 78.5944 25.36C78.541 25.8933 78.5144 26.3467 78.5144 26.72C78.5144 28.0267 78.9544 28.68 79.8344 28.68C80.261 28.68 80.701 28.5867 81.1544 28.4C81.6077 28.2133 82.0877 27.9733 82.5944 27.68L83.3544 28.92C82.7677 29.48 81.9677 30.04 80.9544 30.6C79.9677 31.1333 78.901 31.4 77.7544 31.4ZM0.16 85L0.56 83.2H1.08C1.93333 83.2 2.70667 83.04 3.4 82.72C4.12 82.4 4.61333 81.64 4.88 80.44L9 60.96C9.13333 60.4533 9.2 60.0533 9.2 59.76C9.2 59.12 8.92 58.7067 8.36 58.52C7.82667 58.3333 7.14667 58.24 6.32 58.24H5.8L6.16 56.44H16.72C19.6267 56.44 21.92 57.0933 23.6 58.4C25.3067 59.7067 26.16 61.64 26.16 64.2C26.16 65.2133 26 66.28 25.68 67.4C25.36 68.52 24.76 69.5867 23.88 70.6C23.0267 71.5867 21.7867 72.3867 20.16 73C18.56 73.6133 16.48 73.92 13.92 73.92H10.92L9.48 80.6C9.37333 81 9.32 81.36 9.32 81.68C9.32 82.32 9.58667 82.7333 10.12 82.92C10.68 83.1067 11.3867 83.2 12.24 83.2H13.56L13.16 85H0.16ZM11.36 71.92H13.36C15.3067 71.92 16.8533 71.6 18 70.96C19.1733 70.2933 20.0133 69.3867 20.52 68.24C21.0267 67.0667 21.28 65.7333 21.28 64.24C21.28 62.16 20.8 60.68 19.84 59.8C18.88 58.92 17.5333 58.48 15.8 58.48H14.2L11.36 71.92ZM36.0734 85.4C34.5801 85.4 33.2201 85.1067 31.9934 84.52C30.7668 83.9067 29.7801 82.9867 29.0334 81.76C28.3134 80.5333 27.9534 78.9867 27.9534 77.12C27.9534 75.6267 28.2201 74.08 28.7534 72.48C29.2868 70.8533 30.0734 69.3333 31.1134 67.92C32.1534 66.5067 33.4468 65.36 34.9934 64.48C36.5401 63.6 38.3134 63.16 40.3134 63.16C42.0734 63.16 43.4334 63.5733 44.3934 64.4C45.3534 65.2 45.8334 66.3333 45.8334 67.8C45.8334 69.2133 45.3268 70.5333 44.3134 71.76C43.3268 72.96 41.9401 73.9467 40.1534 74.72C38.3934 75.4667 36.3934 75.84 34.1534 75.84H32.7534C32.7001 76.1067 32.6734 76.3867 32.6734 76.68C32.6734 76.9467 32.6734 77.2133 32.6734 77.48C32.6734 79.1333 33.0334 80.4267 33.7534 81.36C34.5001 82.2667 35.5934 82.72 37.0334 82.72C38.3401 82.72 39.4868 82.4133 40.4734 81.8C41.4868 81.16 42.2734 80.48 42.8334 79.76C43.1268 80 43.2734 80.4 43.2734 80.96C43.2734 81.5467 43.0201 82.1867 42.5134 82.88C42.0068 83.5733 41.2201 84.1733 40.1534 84.68C39.0868 85.16 37.7268 85.4 36.0734 85.4ZM33.0734 73.88H33.4734C34.9668 73.88 36.3001 73.6267 37.4734 73.12C38.6468 72.6133 39.5668 71.92 40.2334 71.04C40.9268 70.1333 41.2734 69.08 41.2734 67.88C41.2734 66.0933 40.5401 65.2 39.0734 65.2C38.3268 65.2 37.6334 65.4667 36.9934 66C36.3801 66.5067 35.8068 67.1867 35.2734 68.04C34.7668 68.8667 34.3268 69.8 33.9534 70.84C33.5801 71.8533 33.2868 72.8667 33.0734 73.88ZM45.9487 94.6L51.2688 69.2C51.4021 68.72 51.4954 68.2933 51.5488 67.92C51.6021 67.5467 51.6288 67.3067 51.6288 67.2C51.6288 66.4 51.3754 65.8933 50.8688 65.68C50.3888 65.4667 49.7754 65.36 49.0288 65.36H48.5888L48.9488 63.56H56.4288L55.4688 68.88H55.6688C56.2288 67.8133 56.8421 66.8533 57.5088 66C58.2021 65.12 58.9888 64.4267 59.8688 63.92C60.7754 63.4133 61.8421 63.16 63.0688 63.16C64.7221 63.16 66.0154 63.7867 66.9488 65.04C67.9088 66.2667 68.3888 68.0533 68.3888 70.4C68.3888 71.5467 68.2288 72.8 67.9088 74.16C67.5888 75.4933 67.1088 76.8267 66.4688 78.16C65.8288 79.4933 65.0288 80.7067 64.0688 81.8C63.1088 82.8933 61.9754 83.7733 60.6688 84.44C59.3888 85.08 57.9354 85.4 56.3088 85.4C55.5354 85.4 54.8021 85.3067 54.1088 85.12C53.4421 84.96 52.8554 84.7467 52.3487 84.48C52.3221 84.6933 52.2821 84.9867 52.2288 85.36C52.1754 85.7333 52.1088 86.08 52.0288 86.4L51.4688 88.92C51.4154 89.1333 51.3488 89.4667 51.2688 89.92C51.1888 90.4 51.1488 90.76 51.1488 91C51.1488 91.7733 51.3888 92.2667 51.8688 92.48C52.3488 92.6933 52.9754 92.8 53.7488 92.8H54.5488L54.1888 94.6H45.9487ZM56.1088 83.4C57.0954 83.4 57.9888 83.1067 58.7888 82.52C59.5888 81.9333 60.2954 81.1733 60.9088 80.24C61.5221 79.28 62.0421 78.2267 62.4688 77.08C62.8954 75.9333 63.2154 74.7867 63.4288 73.64C63.6421 72.4667 63.7488 71.4 63.7488 70.44C63.7488 69.6933 63.6688 68.9733 63.5088 68.28C63.3754 67.56 63.1354 66.9867 62.7888 66.56C62.4421 66.1067 61.9488 65.88 61.3088 65.88C60.5621 65.88 59.8288 66.1733 59.1088 66.76C58.4154 67.32 57.7621 68.0533 57.1488 68.96C56.5354 69.84 56.0021 70.7867 55.5488 71.8C55.1221 72.7867 54.8154 73.7067 54.6288 74.56L53.0288 82.04C53.2688 82.3333 53.6554 82.64 54.1888 82.96C54.7488 83.2533 55.3888 83.4 56.1088 83.4ZM79.8625 85.4C78.3692 85.4 77.0092 85.1067 75.7825 84.52C74.5558 83.9067 73.5692 82.9867 72.8225 81.76C72.1025 80.5333 71.7425 78.9867 71.7425 77.12C71.7425 75.6267 72.0092 74.08 72.5425 72.48C73.0758 70.8533 73.8625 69.3333 74.9025 67.92C75.9425 66.5067 77.2358 65.36 78.7825 64.48C80.3292 63.6 82.1025 63.16 84.1025 63.16C85.8625 63.16 87.2225 63.5733 88.1825 64.4C89.1425 65.2 89.6225 66.3333 89.6225 67.8C89.6225 69.2133 89.1158 70.5333 88.1025 71.76C87.1158 72.96 85.7292 73.9467 83.9425 74.72C82.1825 75.4667 80.1825 75.84 77.9425 75.84H76.5425C76.4892 76.1067 76.4625 76.3867 76.4625 76.68C76.4625 76.9467 76.4625 77.2133 76.4625 77.48C76.4625 79.1333 76.8225 80.4267 77.5425 81.36C78.2892 82.2667 79.3825 82.72 80.8225 82.72C82.1292 82.72 83.2758 82.4133 84.2625 81.8C85.2758 81.16 86.0625 80.48 86.6225 79.76C86.9158 80 87.0625 80.4 87.0625 80.96C87.0625 81.5467 86.8092 82.1867 86.3025 82.88C85.7958 83.5733 85.0092 84.1733 83.9425 84.68C82.8758 85.16 81.5158 85.4 79.8625 85.4ZM76.8625 73.88H77.2625C78.7558 73.88 80.0892 73.6267 81.2625 73.12C82.4358 72.6133 83.3558 71.92 84.0225 71.04C84.7158 70.1333 85.0625 69.08 85.0625 67.88C85.0625 66.0933 84.3292 65.2 82.8625 65.2C82.1158 65.2 81.4225 65.4667 80.7825 66C80.1692 66.5067 79.5958 67.1867 79.0625 68.04C78.5558 68.8667 78.1158 69.8 77.7425 70.84C77.3692 71.8533 77.0758 72.8667 76.8625 73.88ZM96.6578 85.4C95.4578 85.4 94.5378 85.0267 93.8978 84.28C93.2578 83.5333 92.9378 82.6133 92.9378 81.52C92.9378 81.0133 92.9778 80.4133 93.0578 79.72C93.1378 79.0267 93.2445 78.32 93.3778 77.6C93.5111 76.8533 93.6311 76.2 93.7378 75.64L97.0578 60C97.1378 59.6267 97.2045 59.2667 97.2578 58.92C97.3111 58.5733 97.3378 58.3467 97.3378 58.24C97.3378 57.44 97.0845 56.9333 96.5778 56.72C96.0978 56.5067 95.4711 56.4 94.6978 56.4H94.1378L94.4978 54.6H102.618L97.9778 76.44C97.8978 76.7867 97.8045 77.2267 97.6978 77.76C97.6178 78.2933 97.5378 78.8267 97.4578 79.36C97.3778 79.8933 97.3378 80.3467 97.3378 80.72C97.3378 82.0267 97.7911 82.68 98.6978 82.68C99.1245 82.68 99.5645 82.5867 100.018 82.4C100.471 82.2133 100.938 81.9733 101.418 81.68L102.218 82.92C101.604 83.48 100.804 84.04 99.8178 84.6C98.8311 85.1333 97.7778 85.4 96.6578 85.4ZM112.072 59.68C111.352 59.68 110.752 59.4933 110.272 59.12C109.819 58.7467 109.592 58.1733 109.592 57.4C109.592 56.4667 109.846 55.7467 110.352 55.24C110.886 54.7333 111.552 54.48 112.352 54.48C113.046 54.48 113.632 54.6667 114.112 55.04C114.592 55.3867 114.832 55.96 114.832 56.76C114.832 57.8 114.539 58.5467 113.952 59C113.366 59.4533 112.739 59.68 112.072 59.68ZM109.512 85.4C108.339 85.4 107.419 85.0267 106.752 84.28C106.112 83.5333 105.792 82.6133 105.792 81.52C105.792 81.0133 105.832 80.4133 105.912 79.72C106.019 79.0267 106.126 78.32 106.232 77.6C106.366 76.8533 106.499 76.2 106.632 75.64L108.192 68.28C108.299 67.7733 108.352 67.36 108.352 67.04C108.352 66.32 108.139 65.8667 107.712 65.68C107.312 65.4667 106.739 65.36 105.992 65.36H105.432L105.792 63.56H113.592L110.832 76.44C110.752 76.7867 110.672 77.2267 110.592 77.76C110.512 78.2933 110.432 78.8267 110.352 79.36C110.299 79.8933 110.272 80.3467 110.272 80.72C110.272 82.0267 110.712 82.68 111.592 82.68C112.019 82.68 112.459 82.5867 112.912 82.4C113.366 82.2133 113.846 81.9733 114.352 81.68L115.112 82.92C114.526 83.48 113.726 84.04 112.712 84.6C111.726 85.1333 110.659 85.4 109.512 85.4ZM123.487 85.4C121.433 85.4 119.78 85 118.527 84.2C117.273 83.4 116.647 82.3067 116.647 80.92C116.647 80.1733 116.807 79.6 117.127 79.2C117.447 78.7733 117.833 78.48 118.287 78.32C118.767 78.16 119.22 78.08 119.647 78.08C119.647 79.0133 119.793 79.88 120.087 80.68C120.38 81.48 120.847 82.1333 121.487 82.64C122.127 83.12 122.98 83.36 124.047 83.36C125.3 83.36 126.3 83.0667 127.047 82.48C127.82 81.8667 128.207 80.9867 128.207 79.84C128.207 78.9067 127.887 78.1333 127.247 77.52C126.607 76.88 125.54 76.2133 124.047 75.52C122.553 74.8 121.353 73.9733 120.447 73.04C119.567 72.1067 119.127 70.84 119.127 69.24C119.127 67.4533 119.847 66 121.287 64.88C122.753 63.76 124.727 63.2 127.207 63.2C129.527 63.2 131.193 63.6 132.207 64.4C133.247 65.1733 133.767 66.0267 133.767 66.96C133.767 67.8667 133.447 68.5333 132.807 68.96C132.193 69.3867 131.367 69.6 130.327 69.6C130.327 68.9067 130.207 68.2133 129.967 67.52C129.753 66.8267 129.393 66.2533 128.887 65.8C128.38 65.3467 127.7 65.12 126.847 65.12C125.7 65.12 124.793 65.44 124.127 66.08C123.46 66.6933 123.127 67.4667 123.127 68.4C123.127 69.3067 123.46 70.0533 124.127 70.64C124.82 71.2 125.887 71.8 127.327 72.44C128.847 73.1333 130.033 73.9733 130.887 74.96C131.74 75.92 132.167 77.1733 132.167 78.72C132.167 80.72 131.407 82.3333 129.887 83.56C128.367 84.7867 126.233 85.4 123.487 85.4ZM153.508 85.4C152.255 85.4 151.281 85.0267 150.588 84.28C149.921 83.5333 149.588 82.56 149.588 81.36C149.588 80.16 149.828 78.4267 150.308 76.16L150.988 73C151.068 72.6533 151.161 72.2 151.268 71.64C151.401 71.08 151.521 70.5067 151.628 69.92C151.735 69.3067 151.788 68.7733 151.788 68.32C151.788 67.8133 151.681 67.3067 151.468 66.8C151.255 66.2667 150.761 66 149.988 66C149.188 66 148.401 66.32 147.628 66.96C146.855 67.5733 146.135 68.36 145.468 69.32C144.801 70.28 144.228 71.28 143.748 72.32C143.295 73.3333 142.988 74.24 142.828 75.04L140.668 85H136.348L141.548 60.24C141.655 59.76 141.735 59.3333 141.788 58.96C141.868 58.5867 141.908 58.3467 141.908 58.24C141.908 57.44 141.655 56.9333 141.148 56.72C140.668 56.5067 140.041 56.4 139.268 56.4H138.828L139.188 54.6H147.188L145.548 62.36C145.281 63.5333 145.001 64.7067 144.708 65.88C144.415 67.0267 144.201 67.8667 144.068 68.4H144.428C145.495 66.6667 146.615 65.3733 147.788 64.52C148.988 63.64 150.375 63.2 151.948 63.2C153.575 63.2 154.708 63.6533 155.348 64.56C155.988 65.44 156.308 66.48 156.308 67.68C156.308 68.3467 156.215 69.08 156.028 69.88C155.868 70.68 155.721 71.4267 155.588 72.12L154.588 76.72C154.428 77.44 154.295 78.16 154.188 78.88C154.108 79.5733 154.068 80.2133 154.068 80.8C154.068 82.0533 154.535 82.68 155.468 82.68C155.868 82.68 156.268 82.6133 156.668 82.48C157.068 82.32 157.495 82.08 157.948 81.76L158.748 83C158.108 83.56 157.361 84.1067 156.508 84.64C155.681 85.1467 154.681 85.4 153.508 85.4ZM169.238 85.4C167.744 85.4 166.384 85.1067 165.158 84.52C163.931 83.9067 162.944 82.9867 162.198 81.76C161.478 80.5333 161.118 78.9867 161.118 77.12C161.118 75.6267 161.384 74.08 161.918 72.48C162.451 70.8533 163.238 69.3333 164.278 67.92C165.318 66.5067 166.611 65.36 168.158 64.48C169.704 63.6 171.478 63.16 173.478 63.16C175.238 63.16 176.598 63.5733 177.558 64.4C178.518 65.2 178.998 66.3333 178.998 67.8C178.998 69.2133 178.491 70.5333 177.478 71.76C176.491 72.96 175.104 73.9467 173.318 74.72C171.558 75.4667 169.558 75.84 167.318 75.84H165.918C165.864 76.1067 165.838 76.3867 165.838 76.68C165.838 76.9467 165.838 77.2133 165.838 77.48C165.838 79.1333 166.198 80.4267 166.918 81.36C167.664 82.2667 168.758 82.72 170.198 82.72C171.504 82.72 172.651 82.4133 173.638 81.8C174.651 81.16 175.438 80.48 175.998 79.76C176.291 80 176.438 80.4 176.438 80.96C176.438 81.5467 176.184 82.1867 175.678 82.88C175.171 83.5733 174.384 84.1733 173.318 84.68C172.251 85.16 170.891 85.4 169.238 85.4ZM166.238 73.88H166.638C168.131 73.88 169.464 73.6267 170.638 73.12C171.811 72.6133 172.731 71.92 173.398 71.04C174.091 70.1333 174.438 69.08 174.438 67.88C174.438 66.0933 173.704 65.2 172.238 65.2C171.491 65.2 170.798 65.4667 170.158 66C169.544 66.5067 168.971 67.1867 168.438 68.04C167.931 68.8667 167.491 69.8 167.118 70.84C166.744 71.8533 166.451 72.8667 166.238 73.88ZM186.273 85.36L183.473 67.48C183.313 66.6533 183.006 66.0933 182.553 65.8C182.099 65.5067 181.486 65.36 180.713 65.36H180.313L180.673 63.56H187.193L189.033 75.4C189.219 76.7333 189.379 78.04 189.513 79.32C189.673 80.6 189.793 81.5733 189.873 82.24H189.993C190.926 81.3067 191.819 80.28 192.673 79.16C193.553 78.04 194.326 76.8933 194.993 75.72C195.686 74.5467 196.233 73.4267 196.633 72.36C197.033 71.2933 197.233 70.36 197.233 69.56C197.233 68.6267 196.993 67.9067 196.513 67.4C196.033 66.8933 195.419 66.64 194.673 66.64C194.673 65.52 194.966 64.6933 195.553 64.16C196.166 63.6 196.846 63.32 197.593 63.32C198.419 63.32 199.086 63.6133 199.593 64.2C200.126 64.76 200.393 65.7067 200.393 67.04C200.393 68.2933 200.153 69.6 199.673 70.96C199.219 72.32 198.619 73.68 197.873 75.04C197.153 76.3733 196.339 77.6667 195.433 78.92C194.553 80.1467 193.659 81.28 192.753 82.32C191.873 83.36 191.073 84.24 190.353 84.96L186.273 85.36ZM208.664 85.4C207.464 85.4 206.464 85.08 205.664 84.44C204.891 83.8 204.304 82.9333 203.904 81.84C203.531 80.72 203.344 79.4667 203.344 78.08C203.344 76.8267 203.517 75.52 203.864 74.16C204.211 72.7733 204.717 71.44 205.384 70.16C206.051 68.8533 206.864 67.68 207.824 66.64C208.811 65.5733 209.944 64.7333 211.224 64.12C212.504 63.48 213.917 63.16 215.464 63.16C216.424 63.16 217.344 63.3067 218.224 63.6C219.104 63.8667 219.824 64.2 220.384 64.6L222.264 63.6H223.744L221.064 76.32C221.011 76.6133 220.931 77.04 220.824 77.6C220.717 78.1333 220.624 78.6933 220.544 79.28C220.464 79.8667 220.424 80.3333 220.424 80.68C220.424 82.04 220.877 82.72 221.784 82.72C222.211 82.72 222.651 82.6267 223.104 82.44C223.557 82.2533 224.024 82.0133 224.504 81.72L225.264 83C224.651 83.5067 223.797 84.04 222.704 84.6C221.637 85.1333 220.544 85.4 219.424 85.4C218.411 85.4 217.597 85.12 216.984 84.56C216.397 83.9733 216.104 83.16 216.104 82.12C216.104 81.6133 216.131 81.1467 216.184 80.72C216.237 80.2933 216.331 79.76 216.464 79.12H216.184C215.251 81.1467 214.184 82.7067 212.984 83.8C211.784 84.8667 210.344 85.4 208.664 85.4ZM210.384 82.68C211.051 82.68 211.731 82.4267 212.424 81.92C213.144 81.3867 213.811 80.68 214.424 79.8C215.064 78.8933 215.624 77.8933 216.104 76.8C216.611 75.7067 216.971 74.6 217.184 73.48L218.664 66.52C218.371 66.0667 217.957 65.7333 217.424 65.52C216.891 65.28 216.331 65.16 215.744 65.16C214.731 65.16 213.811 65.4533 212.984 66.04C212.157 66.6267 211.424 67.4133 210.784 68.4C210.171 69.36 209.651 70.4267 209.224 71.6C208.824 72.7467 208.517 73.9067 208.304 75.08C208.091 76.2267 207.984 77.2667 207.984 78.2C207.984 79.8267 208.211 80.9867 208.664 81.68C209.144 82.3467 209.717 82.68 210.384 82.68Z" fill="black"/>
</svg>
