<svg width="1064" height="638" viewBox="0 0 1064 638" fill="none" xmlns="http://www.w3.org/2000/svg">
<g filter="url(#filter0_d)">
<path d="M20 34C20 25.1635 27.1634 18 36 18H1028C1036.84 18 1044 25.1634 1044 34V600C1044 608.837 1036.84 616 1028 616H36C27.1634 616 20 608.837 20 600V34Z" fill="white"/>
<path d="M20.5 34C20.5 25.4396 27.4396 18.5 36 18.5H1028C1036.56 18.5 1043.5 25.4396 1043.5 34V600C1043.5 608.56 1036.56 615.5 1028 615.5H36C27.4396 615.5 20.5 608.56 20.5 600V34Z" stroke="#E9E9E9"/>
</g>
<path d="M21 34C21 25.7157 27.7157 19 36 19H1028C1036.28 19 1043 25.7157 1043 34V55H21V34Z" fill="#F3F3F3"/>
<circle opacity="0.32" cx="43" cy="37" r="6" fill="black" fill-opacity="0.64"/>
<circle opacity="0.32" cx="63" cy="37" r="6" fill="black" fill-opacity="0.64"/>
<circle opacity="0.32" cx="83" cy="37" r="6" fill="black" fill-opacity="0.64"/>
<defs>
<filter id="filter0_d" x="0" y="0" width="1064" height="638" filterUnits="userSpaceOnUse" color-interpolation-filters="sRGB">
<feFlood flood-opacity="0" result="BackgroundImageFix"/>
<feColorMatrix in="SourceAlpha" type="matrix" values="0 0 0 0 0 0 0 0 0 0 0 0 0 0 0 0 0 0 127 0"/>
<feOffset dy="2"/>
<feGaussianBlur stdDeviation="10"/>
<feColorMatrix type="matrix" values="0 0 0 0 0 0 0 0 0 0 0 0 0 0 0 0 0 0 0.08 0"/>
<feBlend mode="normal" in2="BackgroundImageFix" result="effect1_dropShadow"/>
<feBlend mode="normal" in="SourceGraphic" in2="effect1_dropShadow" result="shape"/>
</filter>
</defs>
</svg>
