<svg width="40" height="40" viewBox="0 0 40 40" fill="none" xmlns="http://www.w3.org/2000/svg">
<circle cx="20" cy="20" r="19.5" fill="#F3F3F3" stroke="#E9E9E9"/>
<path fill-rule="evenodd" clip-rule="evenodd" d="M20.5 10C20.5 9.72386 20.2761 9.5 20 9.5C19.7239 9.5 19.5 9.72386 19.5 10V19.5H10C9.72386 19.5 9.5 19.7239 9.5 20C9.5 20.2761 9.72386 20.5 10 20.5H19.5V30C19.5 30.2761 19.7239 30.5 20 30.5C20.2761 30.5 20.5 30.2761 20.5 30V20.5H30C30.2761 20.5 30.5 20.2761 30.5 20C30.5 19.7239 30.2761 19.5 30 19.5H20.5V10Z" fill="black" fill-opacity="0.64"/>
</svg>
